<?xml version="1.0" encoding="utf-8"?>
<!-- Generator: Adobe Illustrator 16.0.0, SVG Export Plug-In . SVG Version: 6.00 Build 0)  -->
<!DOCTYPE svg PUBLIC "-//W3C//DTD SVG 1.1//EN" "http://www.w3.org/Graphics/SVG/1.1/DTD/svg11.dtd">
<svg version="1.1" xmlns="http://www.w3.org/2000/svg" xmlns:xlink="http://www.w3.org/1999/xlink" x="0px" y="0px" width="512px"
	 height="512px" viewBox="0 0 512 512" enable-background="new 0 0 512 512" xml:space="preserve">
<g id="background">
	
		<rect x="-897.5" y="-296" fill-rule="evenodd" clip-rule="evenodd" fill="#F4E5CE" stroke="#F6EFDD" stroke-linecap="round" stroke-linejoin="round" stroke-miterlimit="10" width="2294" height="1092"/>
</g>
<g id="immo">
	<g>
		<rect x="-883.5" y="745" fill-rule="evenodd" clip-rule="evenodd" fill="#CDB9A1" width="2281" height="51"/>
		<rect x="-884.5" y="695" fill-rule="evenodd" clip-rule="evenodd" fill="#E6D9C6" width="2281" height="50"/>
		<rect x="-883.5" y="573" fill-rule="evenodd" clip-rule="evenodd" fill="#E6D9C6" width="79" height="122"/>
		<rect x="1275.5" y="574" fill-rule="evenodd" clip-rule="evenodd" fill="#E6D9C6" width="119" height="122"/>
		<rect x="-243.5" y="603" fill-rule="evenodd" clip-rule="evenodd" fill="#E6D9C6" width="161" height="92"/>
		<rect x="33.5" y="633" fill-rule="evenodd" clip-rule="evenodd" fill="#E6D9C6" width="61" height="62"/>
		<polygon fill-rule="evenodd" clip-rule="evenodd" fill="#E6D9C6" points="-373.5,366 -294.5,326 -294.5,695 -373.5,695 		"/>
		<polygon fill-rule="evenodd" clip-rule="evenodd" fill="#E6D9C6" points="336.5,316 415.5,276 415.5,695 336.5,695 		"/>
		<polygon fill-rule="evenodd" clip-rule="evenodd" fill="#E6D9C6" points="1000.5,317 1079.5,277 1079.5,696 1000.5,696 		"/>
		<polygon fill-rule="evenodd" clip-rule="evenodd" fill="#E6D9C6" points="419.5,316 458.5,336 458.5,695 419.5,695 		"/>
		<polygon fill-rule="evenodd" clip-rule="evenodd" fill="#E6D9C6" points="1099.5,436 1138.5,456 1138.5,695 1099.5,695 		"/>
		<polygon fill-rule="evenodd" clip-rule="evenodd" fill="#E6D9C6" points="-22.5,316 16.5,336 16.5,695 -22.5,695 		"/>
		<rect x="-591.5" y="573" fill-rule="evenodd" clip-rule="evenodd" fill="#E6D9C6" width="79" height="122"/>
		<rect x="-121.5" y="573" fill-rule="evenodd" clip-rule="evenodd" fill="#E6D9C6" width="79" height="122"/>
		<polygon fill-rule="evenodd" clip-rule="evenodd" fill="#E6D9C6" points="-471.5,619 -447.5,605 -422.5,619 -422.5,661 
			-471.5,661 		"/>
		<polygon fill-rule="evenodd" clip-rule="evenodd" fill="#E6D9C6" points="-228.5,561 -204.5,547 -179.5,561 -179.5,603 
			-228.5,603 		"/>
		<rect x="-575.5" y="525" fill-rule="evenodd" clip-rule="evenodd" fill="#E6D9C6" width="48" height="48"/>
		<rect x="-563.5" y="495" fill-rule="evenodd" clip-rule="evenodd" fill="#E6D9C6" width="22" height="30"/>
		<rect x="-554.5" y="342" fill-rule="evenodd" clip-rule="evenodd" fill="#E6D9C6" width="5" height="153"/>
		<polygon fill-rule="evenodd" clip-rule="evenodd" fill="#E6D9C6" points="-4.5,219 0.5,219 0.5,330 -4.5,326 		"/>
		<rect x="666.5" y="603" fill-rule="evenodd" clip-rule="evenodd" fill="#E6D9C6" width="5" height="47"/>
		<rect x="-778.5" y="437" fill-rule="evenodd" clip-rule="evenodd" fill="#E6D9C6" width="23" height="258"/>
		<rect x="120.5" y="487" fill-rule="evenodd" clip-rule="evenodd" fill="#E6D9C6" width="23" height="208"/>
		<polygon fill-rule="evenodd" clip-rule="evenodd" fill="#E6D9C6" points="885.5,597 895.59,535 908.5,597 908.5,695 885.5,695 		
			"/>
		<rect x="571.5" y="618" fill-rule="evenodd" clip-rule="evenodd" fill="#E6D9C6" width="37" height="78"/>
		<polygon fill-rule="evenodd" clip-rule="evenodd" fill="#E6D9C6" points="694.5,488 731.5,468 731.5,696 694.5,696 		"/>
		<rect x="641.5" y="648" fill-rule="evenodd" clip-rule="evenodd" fill="#E6D9C6" width="37" height="48"/>
		<polygon fill-rule="evenodd" clip-rule="evenodd" fill="#E6D9C6" points="792.5,648 829.5,638 829.5,696 792.5,696 		"/>
		<rect x="852.5" y="648" fill-rule="evenodd" clip-rule="evenodd" fill="#E6D9C6" width="67" height="48"/>
		<polygon fill-rule="evenodd" clip-rule="evenodd" fill="#E6D9C6" points="742.5,608 779.5,618 779.5,696 742.5,696 		"/>
		<rect x="621.5" y="558" fill-rule="evenodd" clip-rule="evenodd" fill="#E6D9C6" width="27" height="138"/>
		<rect x="487.5" y="617" fill-rule="evenodd" clip-rule="evenodd" fill="#E6D9C6" width="65" height="78"/>
		<rect x="481.5" y="606" fill-rule="evenodd" clip-rule="evenodd" fill="#E6D9C6" width="33" height="90"/>
		<rect x="-458.5" y="661" fill-rule="evenodd" clip-rule="evenodd" fill="#E6D9C6" width="8" height="34"/>
		<rect x="-445.5" y="661" fill-rule="evenodd" clip-rule="evenodd" fill="#E6D9C6" width="8" height="34"/>
		<polygon fill-rule="evenodd" clip-rule="evenodd" fill="#E6D9C6" points="-730.5,537 -655.5,591 -655.5,695 -730.5,695 		"/>
		<polygon fill-rule="evenodd" clip-rule="evenodd" fill="#E6D9C6" points="184.5,653 225.5,634 273.5,653 273.5,695 184.5,695 		
			"/>
		<polygon fill-rule="evenodd" clip-rule="evenodd" fill="#E6D9C6" points="1170.5,654 1211.5,635 1259.5,654 1259.5,696 
			1170.5,696 		"/>
		<polygon fill-rule="evenodd" clip-rule="evenodd" fill="#E6D9C6" points="503.5,577 544.5,567 544.5,695 503.5,695 		"/>
	</g>
</g>
<g id="clouds">
	
		<path fill-rule="evenodd" clip-rule="evenodd" fill="#F7F1E1" stroke="#F6EFDD" stroke-linecap="round" stroke-linejoin="round" stroke-miterlimit="10" d="
		M-831.5,328c0,4.86,0.8,9.56,2.3,14h173.42c-5.84-17.44-22.31-30-41.72-30c-7.01,0-13.64,1.64-19.53,4.56
		c-6-22.1-29-38.56-56.47-38.56C-805.53,278-831.5,300.39-831.5,328z"/>
	
		<path fill-rule="evenodd" clip-rule="evenodd" fill="#F7F1E1" stroke="#F6EFDD" stroke-linecap="round" stroke-linejoin="round" stroke-miterlimit="10" d="
		M-883.5,37c0,4.86,0.8,9.56,2.3,14h173.42c-5.84-17.44-22.31-30-41.72-30c-7.01,0-13.64,1.64-19.53,4.56
		c-6-22.1-29-38.56-56.47-38.56C-857.53-13-883.5,9.39-883.5,37z"/>
	
		<path fill-rule="evenodd" clip-rule="evenodd" fill="#F7F1E1" stroke="#F6EFDD" stroke-linecap="round" stroke-linejoin="round" stroke-miterlimit="10" d="
		M169.5,351c0,4.86,0.8,9.56,2.3,14h173.42c-5.84-17.44-22.31-30-41.72-30c-7.01,0-13.64,1.64-19.53,4.56
		c-6-22.1-29-38.56-56.47-38.56C195.47,301,169.5,323.39,169.5,351z"/>
	
		<path fill-rule="evenodd" clip-rule="evenodd" fill="#F7F1E1" stroke="#F6EFDD" stroke-linecap="round" stroke-linejoin="round" stroke-miterlimit="10" d="
		M1395.23,184c0,4.86-0.81,9.56-2.31,14H1219.5c5.85-17.44,22.32-30,41.73-30c7.01,0,13.64,1.64,19.52,4.56
		c6-22.1,29.01-38.56,56.48-38.56C1369.26,134,1395.23,156.39,1395.23,184z"/>
	
		<path fill-rule="evenodd" clip-rule="evenodd" fill="#F7F1E1" stroke="#F6EFDD" stroke-linecap="round" stroke-linejoin="round" stroke-miterlimit="10" d="
		M634.23,120c0,4.86-0.81,9.56-2.31,14H458.5c5.85-17.44,22.32-30,41.73-30c7.01,0,13.64,1.64,19.52,4.56
		c6-22.1,29.01-38.56,56.48-38.56C608.26,70,634.23,92.39,634.23,120z"/>
	
		<path fill-rule="evenodd" clip-rule="evenodd" fill="#F7F1E1" stroke="#F6EFDD" stroke-linecap="round" stroke-linejoin="round" stroke-miterlimit="10" d="
		M-150.76,245c-2.12-16.34-17.09-29-35.24-29l-0.51,0.01l0.01-1.01c0-55.23-48.35-100-108-100c-54.04,0-98.81,36.75-106.75,84.73
		c-6.07-2.4-12.74-3.73-19.75-3.73c-27.89,0-50.5,21.04-50.5,47c0,0.67,0.02,1.34,0.04,2H-150.76z"/>
	
		<path fill-rule="evenodd" clip-rule="evenodd" fill="#F7F1E1" stroke="#F6EFDD" stroke-linecap="round" stroke-linejoin="round" stroke-miterlimit="10" d="
		M131.5,89c-1.15-8.8-9.27-15.62-19.12-15.62l-0.27,0.01v-0.54C112.11,43.11,85.88,19,53.52,19C24.2,19-0.08,38.79-4.39,64.62
		c-3.29-1.29-6.91-2-10.71-2c-15.13,0-27.4,11.33-27.4,25.3c0,0.36,0.01,0.72,0.02,1.08H131.5z"/>
	
		<path fill-rule="evenodd" clip-rule="evenodd" fill="#F7F1E1" stroke="#F6EFDD" stroke-linecap="round" stroke-linejoin="round" stroke-miterlimit="10" d="
		M950.5,301c-1.45-11.19-11.67-19.85-24.06-19.85h-0.35l0.01-0.69c0-37.81-33.02-68.46-73.75-68.46
		c-36.89,0-67.46,25.16-72.88,58.01c-4.15-1.65-8.7-2.56-13.49-2.56c-19.04,0-34.48,14.41-34.48,32.18c0,0.46,0.01,0.92,0.03,1.37
		H950.5z"/>
</g>
<g id="rocket">
	<path fill-rule="evenodd" clip-rule="evenodd" fill="#DDDDDD" d="M-414.41-54.48c-14.92,0-27.07-12.16-27.07-27.1
		c0-14.95,12.15-27.11,27.07-27.11c14.93,0,27.08,12.16,27.08,27.11C-387.33-66.64-399.48-54.48-414.41-54.48z M-334.6-173
		C-493.39-151.39-551.62-8.47-551.62-8.47l78.28,70.92C-325.69-47.57-334.6-173-334.6-173z"/>
	<polygon fill="#AAAAAA" points="-485.44,74.2 -562.18,3.22 -554.22,-5.4 -477.49,65.58 	"/>
	<polygon fill="#DDDDDD" points="-504.26,94.58 -580.2,24.32 -564.29,7.08 -488.34,77.34 	"/>
	<polyline fill="#AAAAAA" points="-461.94,-96.2 -521.42,-110.98 -546.79,-68.6 -573.01,-22.79 -526.7,-72.95 -489.11,-38.18 	"/>
	<polyline fill="#AAAAAA" points="-401.83,-36.68 -377.27,17.85 -406.06,40.26 -465.62,79.46 -420.03,30.09 -457.62,-4.68 	"/>
	<path fill="#4DD2FF" d="M-577.08,40.83c0,0-30.7,1.54-39.91,32.27c0,0,13.82-12.29,27.63-4.61c0,0-39.91,0-35.3,32.27
		c4.6,32.26-36.84,19.97-36.84,19.97s23.02,19.97,42.98,1.54c0,0,0,19.97-32.24,29.19c0,0,41.45,6.15,59.87-23.05
		c0,0-3.07-39.95,21.49-30.73c0,0,27.62,19.98-16.89,41.49c0,0,49.12,10.76,62.93-49.17L-577.08,40.83z"/>
	<g>
		<path fill="none" d="M-414.41-49.74c-17.53,0-31.81-14.29-31.81-31.84c0-17.56,14.28-31.84,31.81-31.84
			c17.54,0,31.81,14.28,31.81,31.84C-382.6-64.03-396.87-49.74-414.41-49.74z"/>
	</g>
	<path fill="#AAAAAA" d="M-392.06-81.58c0,12.35-10.01,22.36-22.35,22.36c-12.34,0-22.34-10.01-22.34-22.36
		c0-12.36,10-22.37,22.34-22.37C-402.07-103.95-392.06-93.94-392.06-81.58z"/>
</g>
</svg>
